<!-- Generator: Adobe Illustrator 19.1.0, SVG Export Plug-In  -->
<svg version="1.1"
	 xmlns="http://www.w3.org/2000/svg" xmlns:xlink="http://www.w3.org/1999/xlink" xmlns:a="http://ns.adobe.com/AdobeSVGViewerExtensions/3.0/"
	 x="0px" y="0px" width="511.688px" height="511.688px" viewBox="0 0 511.688 511.688"
	 style="overflow:scroll;enable-background:new 0 0 511.688 511.688;" xml:space="preserve">
<style type="text/css">
	.st0{fill:#FF0000;}
	.st1{fill:#FFFFFF;}
</style>
<defs>
</defs>
<rect class="st0" width="511.688" height="511.688"/>
<g>
	<path class="st0" d="M256.086,440.635c-101.894,0-184.791-82.896-184.791-184.791c0-101.894,82.897-184.791,184.791-184.791
		c101.895,0,184.791,82.897,184.791,184.791C440.877,357.739,357.981,440.635,256.086,440.635z"/>
	<path class="st1" d="M256.087,110.553c38.809,0,75.294,15.113,102.736,42.555c27.442,27.442,42.555,63.928,42.555,102.736
		s-15.113,75.295-42.555,102.736c-27.442,27.442-63.927,42.555-102.736,42.555s-75.295-15.113-102.736-42.555
		c-27.442-27.442-42.555-63.927-42.555-102.736s15.113-75.294,42.555-102.736S217.278,110.553,256.087,110.553 M256.087,31.553
		c-123.873,0-224.291,100.418-224.291,224.291s100.418,224.291,224.291,224.291s224.291-100.419,224.291-224.291
		S379.959,31.553,256.087,31.553L256.087,31.553z"/>
</g>
<polygon class="st0" points="256.086,193.844 480.844,193.844 480.844,115.844 "/>
<polygon class="st0" points="256.087,317.844 31.844,317.844 31.844,395.844 "/>
<rect x="42.844" y="194.169" class="st1" width="429.181" height="123.35"/>
<g>
	<path d="M178.265,255.201c-4.911-2.783-11.3-5.821-18.83-8.974c-1.381-0.708-5.099-2.329-11.339-4.927
		c-5.29-2.278-9.256-4.362-11.792-6.214c-3.233-2.343-4.122-3.635-4.353-4.094c-0.497-0.954-0.741-1.862-0.741-2.792
		c0-1.658,0.645-3.126,1.966-4.496c1.529-1.57,3.682-2.82,6.419-3.695c2.846-0.926,6.058-1.398,9.561-1.398
		c7.121,0,13.243,1.528,18.181,4.543c4.846,2.949,8.432,7.117,10.633,12.21l0.61,1.481h6.265v-30h-5.097l-0.641,1.514
		c-0.553,0.643-1.129,1.505-1.708,1.824c-0.274,0.153-1.534,1.067-9.099,0.15c-1.024-0.157-2.287-0.27-3.791-0.534
		c-1.59-0.278-2.85-0.411-3.708-0.48c-3.452-0.491-7.134-0.726-10.921-0.726c-8.192,0-15.587,1.429-21.994,4.221
		c-6.484,2.82-11.6,6.544-15.196,11.092c-3.73,4.714-5.617,9.63-5.617,14.631c0,2.639,0.523,5.183,1.547,7.535
		c1.02,2.315,2.728,4.618,5.072,6.822c2.262,2.135,5.304,4.302,9.295,6.594c3.83,2.223,8.541,4.539,14.015,6.923
		c10.105,4.311,17.122,7.395,20.869,9.182c3.482,1.644,6.092,3.306,7.757,4.936c1.369,1.339,2.009,2.746,2.009,4.45
		c0,0.959,0,3.862-5.391,6.941c-4.075,2.324-9.374,3.501-15.732,3.501c-4.41,0-8.977-0.704-13.57-2.07
		c-4.502-1.357-8.589-3.561-12.141-6.552c-3.416-2.894-5.582-6.103-6.611-10.368l-0.445-1.588h-7.325l-0.98,31h6.567l0.658-1.636
		c1.264-1.982,3.944-2.554,8.132-1.971c1.46,0.199,2.671,0.218,3.578,0.376c8.763,1.677,16.607,2.453,23.318,2.453
		c6.536,0,12.703-0.672,18.324-1.941c5.652-1.278,10.615-3.122,14.747-5.455c4.24-2.399,7.578-5.312,9.931-8.65
		c2.466-3.505,3.717-7.464,3.717-11.752c0-4.682-1.478-8.912-4.397-12.565C187.299,261.274,183.342,258.081,178.265,255.201z"/>
	<path d="M302.649,279.276c-0.044,0.157-3.931,16.568-33.154,16.568h-18.651v-76h16v-10h-66v10h16v76h-16v10h103.582l5.474-28.531
		l-6.838,0.06L302.649,279.276z"/>
	<path d="M303.844,207.844v27h7.829l0.27-1.506c0.065-0.5,1.678-11.494,14.089-11.494h20.812v74h-16v10h64v-10h-15v-74h21.05
		c14.529,0,15.026,9.925,15.034,11.115l-0.008,1.885h6.924v-27H303.844z"/>
</g>
</svg>